<?xml version="1.0" encoding="UTF-8" standalone="no"?>
<!DOCTYPE svg PUBLIC "-//W3C//DTD SVG 1.1//EN"
 "http://www.w3.org/Graphics/SVG/1.1/DTD/svg11.dtd">
<!-- Generated by graphviz version 14.1.2 (20260124.0452)
 -->
<!-- Title: inference_dag Pages: 1 -->
<svg width="234pt" height="464pt"
 viewBox="0.00 0.00 234.00 464.00" xmlns="http://www.w3.org/2000/svg" xmlns:xlink="http://www.w3.org/1999/xlink">
<g id="graph0" class="graph" transform="scale(1 1) rotate(0) translate(4 459.88)">
<title>inference_dag</title>
<polygon fill="white" stroke="none" points="-4,4 -4,-459.88 230.32,-459.88 230.32,4 -4,4"/>
<g id="clust1" class="cluster">
<title>cluster_stage0</title>
<path fill="white" stroke="#999999" stroke-dasharray="5,2" d="M20,-197.88C20,-197.88 206.32,-197.88 206.32,-197.88 212.32,-197.88 218.32,-203.88 218.32,-209.88 218.32,-209.88 218.32,-435.88 218.32,-435.88 218.32,-441.88 212.32,-447.88 206.32,-447.88 206.32,-447.88 20,-447.88 20,-447.88 14,-447.88 8,-441.88 8,-435.88 8,-435.88 8,-209.88 8,-209.88 8,-203.88 14,-197.88 20,-197.88"/>
<text xml:space="preserve" text-anchor="middle" x="32.12" y="-435.32" font-family="Helvetica Bold" font-size="9.00" fill="#555555">Stage 0</text>
</g>
<g id="clust2" class="cluster">
<title>cluster_comp0</title>
<path fill="#e8f5e9" stroke="#388e3c" d="M28.53,-205.88C28.53,-205.88 198.32,-205.88 198.32,-205.88 204.32,-205.88 210.32,-211.88 210.32,-217.88 210.32,-217.88 210.32,-243.88 210.32,-243.88 210.32,-249.88 204.32,-255.88 198.32,-255.88 198.32,-255.88 28.53,-255.88 28.53,-255.88 22.53,-255.88 16.53,-249.88 16.53,-243.88 16.53,-243.88 16.53,-217.88 16.53,-217.88 16.53,-211.88 22.53,-205.88 28.53,-205.88"/>
</g>
<g id="clust3" class="cluster">
<title>cluster_comp1</title>
<path fill="#e3f2fd" stroke="#1565c0" d="M29.59,-263.88C29.59,-263.88 188.2,-263.88 188.2,-263.88 194.2,-263.88 200.2,-269.88 200.2,-275.88 200.2,-275.88 200.2,-321.88 200.2,-321.88 200.2,-327.88 194.2,-333.88 188.2,-333.88 188.2,-333.88 29.59,-333.88 29.59,-333.88 23.59,-333.88 17.59,-327.88 17.59,-321.88 17.59,-321.88 17.59,-275.88 17.59,-275.88 17.59,-269.88 23.59,-263.88 29.59,-263.88"/>
</g>
<g id="clust4" class="cluster">
<title>cluster_comp2</title>
<path fill="#e8f5e9" stroke="#388e3c" d="M28,-341.88C28,-341.88 195.32,-341.88 195.32,-341.88 201.32,-341.88 207.32,-347.88 207.32,-353.88 207.32,-353.88 207.32,-401.88 207.32,-401.88 207.32,-407.88 201.32,-413.88 195.32,-413.88 195.32,-413.88 28,-413.88 28,-413.88 22,-413.88 16,-407.88 16,-401.88 16,-401.88 16,-353.88 16,-353.88 16,-347.88 22,-341.88 28,-341.88"/>
</g>
<!-- legend -->
<g id="node1" class="node">
<title>legend</title>
<polygon fill="white" stroke="none" points="10.37,-4 10.37,-185.75 107.37,-185.75 107.37,-4 10.37,-4"/>
<text xml:space="preserve" text-anchor="start" x="46.12" y="-175.1" font-family="Helvetica,sans-Serif" font-weight="bold" font-size="7.00">Legend</text>
<path fill="#ffffff" stroke="none" d="M17.46,-150.25C17.46,-150.25 26.79,-150.25 26.79,-150.25 29.83,-150.25 32.87,-153.29 32.87,-156.33 32.87,-156.33 32.87,-162.42 32.87,-162.42 32.87,-165.46 29.83,-168.5 26.79,-168.5 26.79,-168.5 17.46,-168.5 17.46,-168.5 14.42,-168.5 11.37,-165.46 11.37,-162.42 11.37,-162.42 11.37,-156.33 11.37,-156.33 11.37,-153.29 14.42,-150.25 17.46,-150.25"/>
<path fill="none" stroke="#cccccc" d="M17.46,-150.25C17.46,-150.25 26.79,-150.25 26.79,-150.25 29.83,-150.25 32.87,-153.29 32.87,-156.33 32.87,-156.33 32.87,-162.42 32.87,-162.42 32.87,-165.46 29.83,-168.5 26.79,-168.5 26.79,-168.5 17.46,-168.5 17.46,-168.5 14.42,-168.5 11.37,-165.46 11.37,-162.42 11.37,-162.42 11.37,-156.33 11.37,-156.33 11.37,-153.29 14.42,-150.25 17.46,-150.25"/>
<text xml:space="preserve" text-anchor="start" x="21" y="-156.85" font-family="Helvetica,sans-Serif" font-size="7.00"> </text>
<text xml:space="preserve" text-anchor="start" x="36.87" y="-156.85" font-family="Helvetica,sans-Serif" font-size="7.00">parameter</text>
<polygon fill="#ffcdd2" stroke="none" points="11.37,-132 11.37,-150.25 32.87,-150.25 32.87,-132 11.37,-132"/>
<polygon fill="none" stroke="#cccccc" points="11.37,-132 11.37,-150.25 32.87,-150.25 32.87,-132 11.37,-132"/>
<text xml:space="preserve" text-anchor="start" x="21" y="-138.6" font-family="Helvetica,sans-Serif" font-size="7.00"> </text>
<text xml:space="preserve" text-anchor="start" x="36.87" y="-138.6" font-family="Helvetica,sans-Serif" font-size="7.00">cascade bridge</text>
<polygon fill="#e8eaf6" stroke="none" points="11.37,-113.75 11.37,-132 32.87,-132 32.87,-113.75 11.37,-113.75"/>
<polygon fill="none" stroke="#cccccc" points="11.37,-113.75 11.37,-132 32.87,-132 32.87,-113.75 11.37,-113.75"/>
<text xml:space="preserve" text-anchor="start" x="21" y="-120.35" font-family="Helvetica,sans-Serif" font-size="7.00"> </text>
<text xml:space="preserve" text-anchor="start" x="36.87" y="-120.35" font-family="Helvetica,sans-Serif" font-size="7.00">grouped param</text>
<path fill="#fff9c4" stroke="none" d="M17.46,-95.5C17.46,-95.5 26.79,-95.5 26.79,-95.5 29.83,-95.5 32.87,-98.54 32.87,-101.58 32.87,-101.58 32.87,-107.67 32.87,-107.67 32.87,-110.71 29.83,-113.75 26.79,-113.75 26.79,-113.75 17.46,-113.75 17.46,-113.75 14.42,-113.75 11.37,-110.71 11.37,-107.67 11.37,-107.67 11.37,-101.58 11.37,-101.58 11.37,-98.54 14.42,-95.5 17.46,-95.5"/>
<path fill="none" stroke="#cccccc" d="M17.46,-95.5C17.46,-95.5 26.79,-95.5 26.79,-95.5 29.83,-95.5 32.87,-98.54 32.87,-101.58 32.87,-101.58 32.87,-107.67 32.87,-107.67 32.87,-110.71 29.83,-113.75 26.79,-113.75 26.79,-113.75 17.46,-113.75 17.46,-113.75 14.42,-113.75 11.37,-110.71 11.37,-107.67 11.37,-107.67 11.37,-101.58 11.37,-101.58 11.37,-98.54 14.42,-95.5 17.46,-95.5"/>
<text xml:space="preserve" text-anchor="start" x="21" y="-102.1" font-family="Helvetica,sans-Serif" font-size="7.00"> </text>
<text xml:space="preserve" text-anchor="start" x="36.87" y="-102.1" font-family="Helvetica,sans-Serif" font-size="7.00">target</text>
<polygon fill="#e8f5e9" stroke="none" points="11.37,-77.25 11.37,-95.5 32.87,-95.5 32.87,-77.25 11.37,-77.25"/>
<polygon fill="none" stroke="#cccccc" points="11.37,-77.25 11.37,-95.5 32.87,-95.5 32.87,-77.25 11.37,-77.25"/>
<text xml:space="preserve" text-anchor="start" x="21" y="-83.85" font-family="Helvetica,sans-Serif" font-size="7.00"> </text>
<text xml:space="preserve" text-anchor="start" x="36.87" y="-83.85" font-family="Helvetica,sans-Serif" font-size="7.00" fill="#388e3c">NUTS component</text>
<polygon fill="#e3f2fd" stroke="none" points="11.37,-59 11.37,-77.25 32.87,-77.25 32.87,-59 11.37,-59"/>
<polygon fill="none" stroke="#cccccc" points="11.37,-59 11.37,-77.25 32.87,-77.25 32.87,-59 11.37,-59"/>
<text xml:space="preserve" text-anchor="start" x="21" y="-65.6" font-family="Helvetica,sans-Serif" font-size="7.00"> </text>
<text xml:space="preserve" text-anchor="start" x="36.87" y="-65.6" font-family="Helvetica,sans-Serif" font-size="7.00" fill="#1565c0">NPE component</text>
<text xml:space="preserve" text-anchor="start" x="30.75" y="-49.35" font-family="Helvetica,sans-Serif" font-weight="bold" font-size="7.00" fill="#d32f2f">━▶</text>
<text xml:space="preserve" text-anchor="start" x="43.5" y="-49.35" font-family="Helvetica,sans-Serif" font-size="7.00" fill="#d32f2f"> cascade flow</text>
<text xml:space="preserve" text-anchor="start" x="25.5" y="-30.6" font-family="Helvetica,sans-Serif" font-size="7.00" fill="#7e57c2">┄┄ parameter group</text>
<text xml:space="preserve" text-anchor="start" x="15.37" y="-12.1" font-family="Helvetica,sans-Serif" font-size="7.00" fill="#bdbdbd">─▸ target constrains param</text>
<polygon fill="none" stroke="#cccccc" points="10.37,-4 10.37,-185.75 107.37,-185.75 107.37,-4 10.37,-4"/>
</g>
<!-- _anchor_0 -->
<!-- p_0_EC50_IFNg -->
<g id="node3" class="node">
<title>p_0_EC50_IFNg</title>
<path fill="#ffffff" stroke="#888888" d="M198.61,-225.44C198.61,-225.44 162.08,-225.44 162.08,-225.44 160.23,-225.44 158.37,-223.59 158.37,-221.73 158.37,-221.73 158.37,-218.02 158.37,-218.02 158.37,-216.16 160.23,-214.31 162.08,-214.31 162.08,-214.31 198.61,-214.31 198.61,-214.31 200.47,-214.31 202.32,-216.16 202.32,-218.02 202.32,-218.02 202.32,-221.73 202.32,-221.73 202.32,-223.59 200.47,-225.44 198.61,-225.44"/>
<text xml:space="preserve" text-anchor="middle" x="180.35" y="-217.35" font-family="Helvetica,sans-Serif" font-size="7.00" fill="#222222">EC50_IFNg</text>
</g>
<!-- p_0_n_Hill -->
<g id="node4" class="node">
<title>p_0_n_Hill</title>
<path fill="#ffffff" stroke="#888888" d="M188.86,-247.44C188.86,-247.44 171.83,-247.44 171.83,-247.44 169.98,-247.44 168.12,-245.59 168.12,-243.73 168.12,-243.73 168.12,-240.02 168.12,-240.02 168.12,-238.16 169.98,-236.31 171.83,-236.31 171.83,-236.31 188.86,-236.31 188.86,-236.31 190.72,-236.31 192.57,-238.16 192.57,-240.02 192.57,-240.02 192.57,-243.73 192.57,-243.73 192.57,-245.59 190.72,-247.44 188.86,-247.44"/>
<text xml:space="preserve" text-anchor="middle" x="180.35" y="-239.35" font-family="Helvetica,sans-Serif" font-size="7.00" fill="#222222">n_Hill</text>
</g>
<!-- t_0_dose_response_Hill -->
<g id="node5" class="node">
<title>t_0_dose_response_Hill</title>
<ellipse fill="#fff9c4" stroke="#f9a825" cx="58.87" cy="-230.88" rx="34.34" ry="10.52"/>
<text xml:space="preserve" text-anchor="middle" x="58.87" y="-232.12" font-family="Helvetica,sans-Serif" font-size="5.00" fill="#555555">dose_response_Hill</text>
<text xml:space="preserve" text-anchor="middle" x="58.87" y="-226.12" font-family="Helvetica,sans-Serif" font-size="5.00" fill="#555555">[fit]</text>
</g>
<!-- t_0_dose_response_Hill&#45;&gt;p_0_EC50_IFNg -->
<g id="edge2" class="edge">
<title>t_0_dose_response_Hill&#45;&gt;p_0_EC50_IFNg</title>
<path fill="none" stroke="#bdbdbd" stroke-width="0.5" d="M92.21,-227.9C111.77,-226.1 136.35,-223.83 154.41,-222.17"/>
<polygon fill="#bdbdbd" stroke="#bdbdbd" stroke-width="0.5" points="154.28,-223.24 157.17,-221.92 154.09,-221.15 154.28,-223.24"/>
</g>
<!-- t_0_dose_response_Hill&#45;&gt;p_0_n_Hill -->
<g id="edge1" class="edge">
<title>t_0_dose_response_Hill&#45;&gt;p_0_n_Hill</title>
<path fill="none" stroke="#bdbdbd" stroke-width="0.5" d="M92.21,-233.85C115.66,-236.01 146.31,-238.83 164.31,-240.49"/>
<polygon fill="#bdbdbd" stroke="#bdbdbd" stroke-width="0.5" points="163.9,-241.51 166.98,-240.74 164.09,-239.42 163.9,-241.51"/>
</g>
<!-- p_1_V_d -->
<g id="node6" class="node">
<title>p_1_V_d</title>
<path fill="#ffffff" stroke="#888888" d="M186.24,-320.44C186.24,-320.44 174.46,-320.44 174.46,-320.44 172.6,-320.44 170.75,-318.58 170.75,-316.73 170.75,-316.73 170.75,-313.02 170.75,-313.02 170.75,-311.17 172.6,-309.31 174.46,-309.31 174.46,-309.31 186.24,-309.31 186.24,-309.31 188.09,-309.31 189.95,-311.17 189.95,-313.02 189.95,-313.02 189.95,-316.73 189.95,-316.73 189.95,-318.58 188.09,-320.44 186.24,-320.44"/>
<text xml:space="preserve" text-anchor="middle" x="180.35" y="-312.35" font-family="Helvetica,sans-Serif" font-size="7.00" fill="#222222">V_d</text>
</g>
<!-- p_1_k_PK -->
<g id="node7" class="node">
<title>p_1_k_PK</title>
<path fill="#ffffff" stroke="#888888" d="M188.49,-293.44C188.49,-293.44 172.21,-293.44 172.21,-293.44 170.35,-293.44 168.5,-291.58 168.5,-289.73 168.5,-289.73 168.5,-286.02 168.5,-286.02 168.5,-284.17 170.35,-282.31 172.21,-282.31 172.21,-282.31 188.49,-282.31 188.49,-282.31 190.34,-282.31 192.2,-284.17 192.2,-286.02 192.2,-286.02 192.2,-289.73 192.2,-289.73 192.2,-291.58 190.34,-293.44 188.49,-293.44"/>
<text xml:space="preserve" text-anchor="middle" x="180.35" y="-285.35" font-family="Helvetica,sans-Serif" font-size="7.00" fill="#222222">k_PK</text>
</g>
<!-- t_1_pop_PK_clearance -->
<g id="node8" class="node">
<title>t_1_pop_PK_clearance</title>
<ellipse fill="#fff9c4" stroke="#f9a825" cx="58.87" cy="-282.88" rx="33.28" ry="10.52"/>
<text xml:space="preserve" text-anchor="middle" x="58.87" y="-284.12" font-family="Helvetica,sans-Serif" font-size="5.00" fill="#555555">pop_PK_clearance</text>
<text xml:space="preserve" text-anchor="middle" x="58.87" y="-278.12" font-family="Helvetica,sans-Serif" font-size="5.00" fill="#555555">[ODE]</text>
</g>
<!-- t_1_pop_PK_clearance&#45;&gt;p_1_k_PK -->
<g id="edge3" class="edge">
<title>t_1_pop_PK_clearance&#45;&gt;p_1_k_PK</title>
<path fill="none" stroke="#bdbdbd" stroke-width="0.5" d="M92.21,-284.23C115.79,-285.22 146.65,-286.51 164.61,-287.26"/>
<polygon fill="#bdbdbd" stroke="#bdbdbd" stroke-width="0.5" points="164.22,-288.29 167.26,-287.37 164.31,-286.19 164.22,-288.29"/>
</g>
<!-- t_1_tissue_distribution -->
<g id="node9" class="node">
<title>t_1_tissue_distribution</title>
<ellipse fill="#fff9c4" stroke="#f9a825" cx="58.87" cy="-314.88" rx="31.16" ry="10.52"/>
<text xml:space="preserve" text-anchor="middle" x="58.87" y="-316.12" font-family="Helvetica,sans-Serif" font-size="5.00" fill="#555555">tissue_distribution</text>
<text xml:space="preserve" text-anchor="middle" x="58.87" y="-310.12" font-family="Helvetica,sans-Serif" font-size="5.00" fill="#555555">[alg]</text>
</g>
<!-- t_1_tissue_distribution&#45;&gt;p_1_V_d -->
<g id="edge4" class="edge">
<title>t_1_tissue_distribution&#45;&gt;p_1_V_d</title>
<path fill="none" stroke="#bdbdbd" stroke-width="0.5" d="M90.33,-314.88C115.22,-314.88 149.12,-314.88 167.05,-314.88"/>
<polygon fill="#bdbdbd" stroke="#bdbdbd" stroke-width="0.5" points="166.66,-315.93 169.66,-314.88 166.66,-313.83 166.66,-315.93"/>
</g>
<!-- t_1_tissue_distribution&#45;&gt;p_1_k_PK -->
<g id="edge5" class="edge">
<title>t_1_tissue_distribution&#45;&gt;p_1_k_PK</title>
<path fill="none" stroke="#bdbdbd" stroke-width="0.5" d="M85.5,-309.08C109.75,-303.6 145.26,-295.58 164.91,-291.14"/>
<polygon fill="#bdbdbd" stroke="#bdbdbd" stroke-width="0.5" points="164.73,-292.26 167.42,-290.57 164.26,-290.21 164.73,-292.26"/>
</g>
<!-- p_2_k_T_prolif -->
<g id="node10" class="node">
<title>p_2_k_T_prolif</title>
<path fill="#ffffff" stroke="#888888" d="M195.61,-405.44C195.61,-405.44 165.08,-405.44 165.08,-405.44 163.23,-405.44 161.37,-403.58 161.37,-401.73 161.37,-401.73 161.37,-398.02 161.37,-398.02 161.37,-396.17 163.23,-394.31 165.08,-394.31 165.08,-394.31 195.61,-394.31 195.61,-394.31 197.47,-394.31 199.32,-396.17 199.32,-398.02 199.32,-398.02 199.32,-401.73 199.32,-401.73 199.32,-403.58 197.47,-405.44 195.61,-405.44"/>
<text xml:space="preserve" text-anchor="middle" x="180.35" y="-397.35" font-family="Helvetica,sans-Serif" font-size="7.00" fill="#222222">k_T_prolif</text>
</g>
<!-- p_2_q_T_in -->
<g id="node11" class="node">
<title>p_2_q_T_in</title>
<path fill="#ffffff" stroke="#888888" d="M190.74,-361.44C190.74,-361.44 169.96,-361.44 169.96,-361.44 168.1,-361.44 166.25,-359.58 166.25,-357.73 166.25,-357.73 166.25,-354.02 166.25,-354.02 166.25,-352.17 168.1,-350.31 169.96,-350.31 169.96,-350.31 190.74,-350.31 190.74,-350.31 192.59,-350.31 194.45,-352.17 194.45,-354.02 194.45,-354.02 194.45,-357.73 194.45,-357.73 194.45,-359.58 192.59,-361.44 190.74,-361.44"/>
<text xml:space="preserve" text-anchor="middle" x="180.35" y="-353.35" font-family="Helvetica,sans-Serif" font-size="7.00" fill="#222222">q_T_in</text>
</g>
<!-- p_2_q_T_out -->
<g id="node12" class="node">
<title>p_2_q_T_out</title>
<path fill="#ffffff" stroke="#888888" d="M192.99,-383.44C192.99,-383.44 167.71,-383.44 167.71,-383.44 165.85,-383.44 164,-381.58 164,-379.73 164,-379.73 164,-376.02 164,-376.02 164,-374.17 165.85,-372.31 167.71,-372.31 167.71,-372.31 192.99,-372.31 192.99,-372.31 194.84,-372.31 196.7,-374.17 196.7,-376.02 196.7,-376.02 196.7,-379.73 196.7,-379.73 196.7,-381.58 194.84,-383.44 192.99,-383.44"/>
<text xml:space="preserve" text-anchor="middle" x="180.35" y="-375.35" font-family="Helvetica,sans-Serif" font-size="7.00" fill="#222222">q_T_out</text>
</g>
<!-- t_2_IHC_density_PDAC -->
<g id="node13" class="node">
<title>t_2_IHC_density_PDAC</title>
<ellipse fill="#fff9c4" stroke="#f9a825" cx="58.87" cy="-362.88" rx="34.34" ry="10.52"/>
<text xml:space="preserve" text-anchor="middle" x="58.87" y="-364.12" font-family="Helvetica,sans-Serif" font-size="5.00" fill="#555555">IHC_density_PDAC</text>
<text xml:space="preserve" text-anchor="middle" x="58.87" y="-358.12" font-family="Helvetica,sans-Serif" font-size="5.00" fill="#555555">[alg]</text>
</g>
<!-- t_2_IHC_density_PDAC&#45;&gt;p_2_k_T_prolif -->
<g id="edge8" class="edge">
<title>t_2_IHC_density_PDAC&#45;&gt;p_2_k_T_prolif</title>
<path fill="none" stroke="#bdbdbd" stroke-width="0.5" d="M85.35,-370.01C94.8,-372.71 105.6,-375.86 115.37,-378.88 129.67,-383.28 145.66,-388.53 158.08,-392.68"/>
<polygon fill="#bdbdbd" stroke="#bdbdbd" stroke-width="0.5" points="157.58,-393.62 160.76,-393.58 158.25,-391.63 157.58,-393.62"/>
</g>
<!-- t_2_IHC_density_PDAC&#45;&gt;p_2_q_T_in -->
<g id="edge7" class="edge">
<title>t_2_IHC_density_PDAC&#45;&gt;p_2_q_T_in</title>
<path fill="none" stroke="#bdbdbd" stroke-width="0.5" d="M93.15,-360.93C115.68,-359.61 144.5,-357.92 162.44,-356.87"/>
<polygon fill="#bdbdbd" stroke="#bdbdbd" stroke-width="0.5" points="162.19,-357.93 165.12,-356.71 162.07,-355.84 162.19,-357.93"/>
</g>
<!-- t_2_IHC_density_PDAC&#45;&gt;p_2_q_T_out -->
<g id="edge6" class="edge">
<title>t_2_IHC_density_PDAC&#45;&gt;p_2_q_T_out</title>
<path fill="none" stroke="#bdbdbd" stroke-width="0.5" d="M91.27,-366.82C113.04,-369.55 141.37,-373.11 159.94,-375.44"/>
<polygon fill="#bdbdbd" stroke="#bdbdbd" stroke-width="0.5" points="159.66,-376.46 162.76,-375.79 159.92,-374.38 159.66,-376.46"/>
</g>
<!-- t_2_in_vitro_proliferation -->
<g id="node14" class="node">
<title>t_2_in_vitro_proliferation</title>
<ellipse fill="#fff9c4" stroke="#f9a825" cx="58.87" cy="-394.88" rx="34.87" ry="10.52"/>
<text xml:space="preserve" text-anchor="middle" x="58.87" y="-396.12" font-family="Helvetica,sans-Serif" font-size="5.00" fill="#555555">in_vitro_proliferation</text>
<text xml:space="preserve" text-anchor="middle" x="58.87" y="-390.12" font-family="Helvetica,sans-Serif" font-size="5.00" fill="#555555">[fit]</text>
</g>
<!-- t_2_in_vitro_proliferation&#45;&gt;p_2_k_T_prolif -->
<g id="edge9" class="edge">
<title>t_2_in_vitro_proliferation&#45;&gt;p_2_k_T_prolif</title>
<path fill="none" stroke="#bdbdbd" stroke-width="0.5" d="M93.79,-396.29C114.23,-397.15 139.66,-398.21 157.46,-398.96"/>
<polygon fill="#bdbdbd" stroke="#bdbdbd" stroke-width="0.5" points="157.12,-400 160.16,-399.07 157.21,-397.9 157.12,-400"/>
</g>
</g>
</svg>
