<?xml version="1.0" encoding="UTF-8" standalone="no"?>
<!DOCTYPE svg PUBLIC "-//W3C//DTD SVG 1.1//EN"
 "http://www.w3.org/Graphics/SVG/1.1/DTD/svg11.dtd">
<!-- Generated by graphviz version 14.1.2 (20260124.0452)
 -->
<!-- Title: cache_flow Pages: 1 -->
<svg width="393pt" height="434pt"
 viewBox="0.00 0.00 393.00 434.00" xmlns="http://www.w3.org/2000/svg" xmlns:xlink="http://www.w3.org/1999/xlink">
<g id="graph0" class="graph" transform="scale(1 1) rotate(0) translate(14.4 419.15)">
<title>cache_flow</title>
<polygon fill="white" stroke="none" points="-14.4,14.4 -14.4,-419.15 378.69,-419.15 378.69,14.4 -14.4,14.4"/>
<!-- request -->
<g id="node1" class="node">
<title>request</title>
<path fill="#ece8e0" stroke="#cbc6b8" d="M199.17,-404.75C199.17,-404.75 12,-404.75 12,-404.75 6,-404.75 0,-398.75 0,-392.75 0,-392.75 0,-380.75 0,-380.75 0,-374.75 6,-368.75 12,-368.75 12,-368.75 199.17,-368.75 199.17,-368.75 205.17,-368.75 211.17,-374.75 211.17,-380.75 211.17,-380.75 211.17,-392.75 211.17,-392.75 211.17,-398.75 205.17,-404.75 199.17,-404.75"/>
<text xml:space="preserve" text-anchor="start" x="86.46" y="-387.75" font-family="Helvetica,sans-Serif" font-weight="bold" font-size="10.00">Request</text>
<text xml:space="preserve" text-anchor="start" x="12.96" y="-378.7" font-family="Helvetica,sans-Serif" font-size="9.00">simulate at θ, scenario S; return observable O</text>
</g>
<!-- local -->
<g id="node2" class="node">
<title>local</title>
<path fill="#3b5070" stroke="#3b5070" d="M169.54,-315C169.54,-315 41.62,-315 41.62,-315 35.62,-315 29.62,-309 29.62,-303 29.62,-303 29.62,-291 29.62,-291 29.62,-285 35.62,-279 41.62,-279 41.62,-279 169.54,-279 169.54,-279 175.54,-279 181.54,-285 181.54,-291 181.54,-291 181.54,-303 181.54,-303 181.54,-309 175.54,-315 169.54,-315"/>
<text xml:space="preserve" text-anchor="start" x="61.33" y="-298" font-family="Helvetica,sans-Serif" font-weight="bold" font-size="10.00" fill="white">Tier 1 — local pool</text>
<text xml:space="preserve" text-anchor="start" x="42.58" y="-288.95" font-family="Helvetica,sans-Serif" font-size="9.00" fill="#dddddd">cached results on this machine</text>
</g>
<!-- request&#45;&gt;local -->
<g id="edge5" class="edge">
<title>request&#45;&gt;local</title>
<path fill="none" stroke="#666666" d="M105.58,-368.41C105.58,-356.52 105.58,-340.45 105.58,-326.66"/>
<polygon fill="#666666" stroke="#666666" points="109.09,-326.81 105.59,-316.81 102.09,-326.81 109.09,-326.81"/>
</g>
<!-- hpc_obs -->
<g id="node3" class="node">
<title>hpc_obs</title>
<path fill="#5a6783" stroke="#5a6783" d="M191.29,-225.25C191.29,-225.25 19.88,-225.25 19.88,-225.25 13.87,-225.25 7.88,-219.25 7.88,-213.25 7.88,-213.25 7.88,-201.25 7.88,-201.25 7.88,-195.25 13.88,-189.25 19.88,-189.25 19.88,-189.25 191.29,-189.25 191.29,-189.25 197.29,-189.25 203.29,-195.25 203.29,-201.25 203.29,-201.25 203.29,-213.25 203.29,-213.25 203.29,-219.25 197.29,-225.25 191.29,-225.25"/>
<text xml:space="preserve" text-anchor="start" x="20.83" y="-208.25" font-family="Helvetica,sans-Serif" font-weight="bold" font-size="10.00" fill="white">Tier 2 — HPC summary observables</text>
<text xml:space="preserve" text-anchor="start" x="47.08" y="-199.2" font-family="Helvetica,sans-Serif" font-size="9.00" fill="#dddddd">derived values on the cluster</text>
</g>
<!-- local&#45;&gt;hpc_obs -->
<g id="edge6" class="edge">
<title>local&#45;&gt;hpc_obs</title>
<path fill="none" stroke="#666666" d="M105.58,-278.66C105.58,-266.77 105.58,-250.7 105.58,-236.91"/>
<polygon fill="#666666" stroke="#666666" points="109.09,-237.06 105.59,-227.06 102.09,-237.06 109.09,-237.06"/>
<text xml:space="preserve" text-anchor="middle" x="145.71" y="-248.45" font-family="Helvetica,sans-Serif" font-size="9.00" fill="#666666"> &#160;not in local cache &#160;</text>
</g>
<!-- result -->
<g id="node6" class="node">
<title>result</title>
<path fill="#ece8e0" stroke="#cbc6b8" d="M352.29,-404.75C352.29,-404.75 240.88,-404.75 240.88,-404.75 234.88,-404.75 228.88,-398.75 228.88,-392.75 228.88,-392.75 228.88,-380.75 228.88,-380.75 228.88,-374.75 234.88,-368.75 240.88,-368.75 240.88,-368.75 352.29,-368.75 352.29,-368.75 358.29,-368.75 364.29,-374.75 364.29,-380.75 364.29,-380.75 364.29,-392.75 364.29,-392.75 364.29,-398.75 358.29,-404.75 352.29,-404.75"/>
<text xml:space="preserve" text-anchor="start" x="281.58" y="-387.75" font-family="Helvetica,sans-Serif" font-weight="bold" font-size="10.00">Result</text>
<text xml:space="preserve" text-anchor="start" x="241.83" y="-378.7" font-family="Helvetica,sans-Serif" font-size="9.00">observable O for θ under S</text>
</g>
<!-- local&#45;&gt;result -->
<g id="edge1" class="edge">
<title>local&#45;&gt;result</title>
<path fill="none" stroke="#2f7d4f" d="M127.18,-315.33C140.7,-325.54 158.81,-338.1 176.33,-346.75 190.19,-353.59 205.52,-359.62 220.47,-364.76"/>
<polygon fill="#2f7d4f" stroke="#2f7d4f" points="219.23,-368.04 229.82,-367.87 221.44,-361.39 219.23,-368.04"/>
<text xml:space="preserve" text-anchor="middle" x="183.46" y="-338.2" font-family="Helvetica,sans-Serif" font-size="9.00" fill="#2f7d4f"> hit </text>
</g>
<!-- hpc_sim -->
<g id="node4" class="node">
<title>hpc_sim</title>
<path fill="#5a6783" stroke="#5a6783" d="M176.29,-135.5C176.29,-135.5 34.88,-135.5 34.88,-135.5 28.88,-135.5 22.88,-129.5 22.88,-123.5 22.88,-123.5 22.88,-111.5 22.88,-111.5 22.88,-105.5 28.88,-99.5 34.88,-99.5 34.88,-99.5 176.29,-99.5 176.29,-99.5 182.29,-99.5 188.29,-105.5 188.29,-111.5 188.29,-111.5 188.29,-123.5 188.29,-123.5 188.29,-129.5 182.29,-135.5 176.29,-135.5"/>
<text xml:space="preserve" text-anchor="start" x="35.83" y="-118.5" font-family="Helvetica,sans-Serif" font-weight="bold" font-size="10.00" fill="white">Tier 3 — HPC full simulations</text>
<text xml:space="preserve" text-anchor="start" x="45.96" y="-109.45" font-family="Helvetica,sans-Serif" font-size="9.00" fill="#dddddd">raw trajectories on the cluster</text>
</g>
<!-- hpc_obs&#45;&gt;hpc_sim -->
<g id="edge7" class="edge">
<title>hpc_obs&#45;&gt;hpc_sim</title>
<path fill="none" stroke="#666666" d="M105.58,-188.91C105.58,-177.02 105.58,-160.95 105.58,-147.16"/>
<polygon fill="#666666" stroke="#666666" points="109.09,-147.31 105.59,-137.31 102.09,-147.31 109.09,-147.31"/>
<text xml:space="preserve" text-anchor="middle" x="153.96" y="-158.7" font-family="Helvetica,sans-Serif" font-size="9.00" fill="#666666"> &#160;new observable code &#160;</text>
</g>
<!-- hpc_obs&#45;&gt;result -->
<g id="edge2" class="edge">
<title>hpc_obs&#45;&gt;result</title>
<path fill="none" stroke="#2f7d4f" d="M158.8,-225.67C170.01,-231.21 181.02,-238.31 189.58,-247.25 222.66,-281.8 199.26,-310.6 230.58,-346.75 235.62,-352.56 241.75,-357.74 248.21,-362.27"/>
<polygon fill="#2f7d4f" stroke="#2f7d4f" points="246.26,-365.17 256.57,-367.62 250.04,-359.28 246.26,-365.17"/>
<text xml:space="preserve" text-anchor="middle" x="221.02" y="-293.32" font-family="Helvetica,sans-Serif" font-size="9.00" fill="#2f7d4f"> hit </text>
</g>
<!-- fresh -->
<g id="node5" class="node">
<title>fresh</title>
<path fill="#c47a3b" stroke="#c47a3b" d="M186.79,-36C186.79,-36 24.37,-36 24.37,-36 18.38,-36 12.38,-30 12.38,-24 12.38,-24 12.38,-12 12.38,-12 12.38,-6 18.38,0 24.38,0 24.38,0 186.79,0 186.79,0 192.79,0 198.79,-6 198.79,-12 198.79,-12 198.79,-24 198.79,-24 198.79,-30 192.79,-36 186.79,-36"/>
<text xml:space="preserve" text-anchor="start" x="59.83" y="-19" font-family="Helvetica,sans-Serif" font-weight="bold" font-size="10.00" fill="white">Fresh SLURM array</text>
<text xml:space="preserve" text-anchor="start" x="25.33" y="-9.95" font-family="Helvetica,sans-Serif" font-size="9.00" fill="#dddddd">rsync, submit, monitor, derive on cluster</text>
</g>
<!-- hpc_sim&#45;&gt;fresh -->
<g id="edge8" class="edge">
<title>hpc_sim&#45;&gt;fresh</title>
<path fill="none" stroke="#666666" d="M105.58,-99.07C105.58,-84.79 105.58,-64.29 105.58,-47.61"/>
<polygon fill="#666666" stroke="#666666" points="109.09,-47.79 105.59,-37.79 102.09,-47.79 109.09,-47.79"/>
<text xml:space="preserve" text-anchor="start" x="105.58" y="-68.95" font-family="Helvetica,sans-Serif" font-size="9.00" fill="#666666"> &#160;new θ, model rebuild,</text>
<text xml:space="preserve" text-anchor="start" x="105.58" y="-59.2" font-family="Helvetica,sans-Serif" font-size="9.00" fill="#666666"> &#160;or scenario edit &#160;</text>
</g>
<!-- hpc_sim&#45;&gt;result -->
<g id="edge3" class="edge">
<title>hpc_sim&#45;&gt;result</title>
<path fill="none" stroke="#2f7d4f" d="M175.27,-135.95C186.86,-141.34 197.91,-148.37 206.58,-157.5 267.53,-221.69 228.53,-267.82 268.58,-346.75 270.75,-351.01 273.35,-355.33 276.08,-359.45"/>
<polygon fill="#2f7d4f" stroke="#2f7d4f" points="273.06,-361.23 281.68,-367.38 278.78,-357.2 273.06,-361.23"/>
<text xml:space="preserve" text-anchor="middle" x="253.41" y="-248.45" font-family="Helvetica,sans-Serif" font-size="9.00" fill="#2f7d4f"> hit </text>
</g>
<!-- fresh&#45;&gt;result -->
<g id="edge4" class="edge">
<title>fresh&#45;&gt;result</title>
<path fill="none" stroke="#2f7d4f" d="M168.87,-36.46C180.51,-41.9 191.75,-48.94 200.58,-58 283.03,-142.58 295.3,-294 296.68,-357.01"/>
<polygon fill="#2f7d4f" stroke="#2f7d4f" points="293.18,-356.92 296.81,-366.88 300.18,-356.83 293.18,-356.92"/>
<text xml:space="preserve" text-anchor="middle" x="287.85" y="-203.57" font-family="Helvetica,sans-Serif" font-size="9.00" fill="#2f7d4f"> hit </text>
</g>
</g>
</svg>
